<svg width="472" height="225" viewBox="0 0 472 225" fill="none" xmlns="http://www.w3.org/2000/svg">
<path d="M181.064 33.494C181.064 34.3906 180.744 35.1591 180.104 35.7996C179.506 36.3973 178.695 36.7602 177.67 36.8883L171.778 37.7209L177.03 40.5388C177.756 40.9231 178.311 41.3928 178.695 41.9478C179.079 42.5029 179.271 43.1006 179.271 43.741C179.271 44.5523 178.994 45.2781 178.439 45.9185C177.756 46.7298 176.923 47.1354 175.941 47.1354C174.788 47.1354 173.785 46.5803 172.931 45.4702L169.216 40.795L169.408 46.7511C169.451 47.9466 169.152 48.9286 168.512 49.6971C167.914 50.423 167.082 50.7859 166.014 50.7859C165.118 50.7859 164.349 50.4657 163.709 49.8252C163.068 49.1848 162.748 48.3949 162.748 47.4556C162.748 46.9005 162.876 46.2814 163.132 45.5983L165.31 40.0905L160.186 43.2287C159.332 43.6983 158.564 43.9332 157.881 43.9332C157.155 43.9332 156.514 43.741 155.959 43.3568C155.447 42.9725 155.084 42.4388 154.87 41.7557C154.742 41.3714 154.678 40.9658 154.678 40.5388C154.678 39.5995 154.956 38.831 155.511 38.2333C156.109 37.6355 156.941 37.2726 158.009 37.1445L164.093 36.3119L158.649 33.494C157.966 33.1524 157.432 32.7041 157.048 32.1491C156.664 31.594 156.472 30.9963 156.472 30.3558C156.472 29.5019 156.749 28.7547 157.304 28.1143C157.902 27.3031 158.734 26.8975 159.802 26.8975C160.912 26.8975 161.915 27.4739 162.812 28.6267L166.526 33.2378L166.334 27.4098C166.292 26.1716 166.569 25.1896 167.167 24.4638C167.807 23.6953 168.661 23.311 169.729 23.311C170.668 23.311 171.437 23.6312 172.034 24.2717C172.675 24.9121 172.995 25.702 172.995 26.6413C172.995 27.1536 172.867 27.7727 172.611 28.4986L170.369 34.0063L175.557 30.8682C176.453 30.3558 177.243 30.0997 177.926 30.0997C178.609 30.0997 179.207 30.3131 179.72 30.7401C180.275 31.1244 180.659 31.6367 180.872 32.2772C181 32.6614 181.064 33.067 181.064 33.494ZM323.037 33.494C323.037 34.3906 322.717 35.1591 322.076 35.7996C321.479 36.3973 320.667 36.7602 319.643 36.8883L313.751 37.7209L319.002 40.5388C319.728 40.9231 320.283 41.3928 320.667 41.9478C321.052 42.5029 321.244 43.1006 321.244 43.741C321.244 44.5523 320.966 45.2781 320.411 45.9185C319.728 46.7298 318.895 47.1354 317.913 47.1354C316.761 47.1354 315.757 46.5803 314.903 45.4702L311.189 40.795L311.381 46.7511C311.424 47.9466 311.125 48.9286 310.484 49.6971C309.887 50.423 309.054 50.7859 307.987 50.7859C307.09 50.7859 306.321 50.4657 305.681 49.8252C305.041 49.1848 304.72 48.3949 304.72 47.4556C304.72 46.9005 304.848 46.2814 305.105 45.5983L307.282 40.0905L302.159 43.2287C301.305 43.6983 300.536 43.9332 299.853 43.9332C299.127 43.9332 298.487 43.741 297.932 43.3568C297.419 42.9725 297.056 42.4388 296.843 41.7557C296.715 41.3714 296.651 40.9658 296.651 40.5388C296.651 39.5995 296.928 38.831 297.483 38.2333C298.081 37.6355 298.914 37.2726 299.981 37.1445L306.065 36.3119L300.622 33.494C299.938 33.1524 299.405 32.7041 299.02 32.1491C298.636 31.594 298.444 30.9963 298.444 30.3558C298.444 29.5019 298.722 28.7547 299.277 28.1143C299.874 27.3031 300.707 26.8975 301.774 26.8975C302.884 26.8975 303.888 27.4739 304.784 28.6267L308.499 33.2378L308.307 27.4098C308.264 26.1716 308.542 25.1896 309.139 24.4638C309.78 23.6953 310.634 23.311 311.701 23.311C312.64 23.311 313.409 23.6312 314.007 24.2717C314.647 24.9121 314.967 25.702 314.967 26.6413C314.967 27.1536 314.839 27.7727 314.583 28.4986L312.342 34.0063L317.529 30.8682C318.426 30.3558 319.216 30.0997 319.899 30.0997C320.582 30.0997 321.18 30.3131 321.692 30.7401C322.247 31.1244 322.631 31.6367 322.845 32.2772C322.973 32.6614 323.037 33.067 323.037 33.494ZM165.363 195.32C163.783 195.32 162.651 194.979 161.968 194.296C161.285 193.57 160.944 192.225 160.944 190.261C160.944 188.937 161.072 187.336 161.328 185.457C161.584 183.579 162.032 180.74 162.673 176.94C162.758 176.427 163.1 174.356 163.698 170.727C164.295 167.055 164.829 163.213 165.299 159.199C165.726 155.784 165.939 153.222 165.939 151.514C165.939 149.593 165.235 148.632 163.826 148.632C162.758 148.632 161.413 149.209 159.791 150.361C158.211 151.471 156.503 153.265 154.667 155.741C154.07 156.552 153.408 156.958 152.682 156.958C152.084 156.958 151.551 156.68 151.081 156.125C150.654 155.528 150.44 154.866 150.44 154.14C150.44 153.414 150.569 152.731 150.825 152.091C151.081 151.407 151.551 150.596 152.234 149.657C154.326 146.796 156.653 144.597 159.214 143.06C161.776 141.481 164.466 140.691 167.284 140.691C169.632 140.691 171.383 141.417 172.536 142.868C173.731 144.32 174.329 146.433 174.329 149.209C174.329 151.685 173.987 155.271 173.304 159.968C175.439 153.649 178.15 148.867 181.438 145.622C184.725 142.334 188.589 140.691 193.03 140.691C196.531 140.691 199.157 141.694 200.907 143.701C202.7 145.665 203.597 148.312 203.597 151.642C203.597 153.521 203.319 155.805 202.764 158.495L198.858 176.812C198.431 178.946 198.217 180.782 198.217 182.319C198.217 184.113 198.623 185.457 199.434 186.354C200.288 187.251 201.462 187.699 202.956 187.699C204.365 187.699 205.732 187.229 207.055 186.29C208.422 185.351 210.023 183.792 211.859 181.615C212.371 181.017 212.947 180.718 213.588 180.718C214.143 180.718 214.57 180.974 214.869 181.487C215.21 181.999 215.381 182.704 215.381 183.6C215.381 185.265 214.975 186.589 214.164 187.571C211.944 190.261 209.745 192.225 207.568 193.463C205.39 194.701 203.106 195.32 200.715 195.32C197.086 195.32 194.247 194.253 192.197 192.118C190.148 189.941 189.123 187.037 189.123 183.408C189.123 181.999 189.23 180.462 189.443 178.797C189.699 177.132 190.105 175.018 190.66 172.457L193.222 160.736C193.307 160.352 193.457 159.669 193.67 158.687C193.884 157.705 194.054 156.787 194.182 155.933C194.311 155.037 194.375 154.161 194.375 153.307C194.375 151.941 193.99 150.852 193.222 150.041C192.453 149.23 191.365 148.824 189.956 148.824C187.394 148.824 184.832 150.191 182.27 152.923C179.709 155.656 177.339 160.075 175.161 166.18C172.984 172.243 171.276 180.014 170.038 189.492C169.739 191.67 169.291 193.185 168.693 194.039C168.138 194.893 167.028 195.32 165.363 195.32ZM242.842 175.338C243.397 175.338 243.824 175.616 244.123 176.171C244.422 176.726 244.572 177.431 244.572 178.285C244.572 180.334 243.952 181.551 242.714 181.935C240.153 182.832 237.335 183.344 234.26 183.472C233.449 187.059 231.848 189.941 229.457 192.118C227.066 194.253 224.355 195.32 221.324 195.32C218.762 195.32 216.563 194.701 214.727 193.463C212.934 192.225 211.568 190.581 210.628 188.532C209.689 186.482 209.219 184.262 209.219 181.871C209.219 178.626 209.838 175.744 211.077 173.225C212.315 170.663 214.023 168.678 216.2 167.269C218.378 165.817 220.79 165.091 223.437 165.091C226.682 165.091 229.286 166.223 231.25 168.486C233.257 170.706 234.431 173.46 234.773 176.747C236.78 176.619 239.171 176.192 241.946 175.467C242.287 175.381 242.586 175.338 242.842 175.338ZM221.836 188.532C223.202 188.532 224.376 187.977 225.358 186.866C226.383 185.756 227.066 184.155 227.408 182.063C226.084 181.166 225.059 179.992 224.334 178.541C223.651 177.089 223.309 175.552 223.309 173.93C223.309 173.246 223.373 172.563 223.501 171.88H223.181C221.473 171.88 220.043 172.713 218.89 174.378C217.78 176 217.225 178.306 217.225 181.295C217.225 183.643 217.673 185.436 218.57 186.674C219.509 187.912 220.598 188.532 221.836 188.532ZM251.268 171.24C251.183 173.374 251.14 175.04 251.14 176.235C251.14 179.309 251.29 181.722 251.588 183.472C251.93 185.18 252.464 186.418 253.189 187.187C253.958 187.912 255.004 188.275 256.328 188.275C257.011 188.275 257.822 188.062 258.761 187.635C259.701 187.208 260.555 186.653 261.323 185.97C261.793 185.543 262.262 185.329 262.732 185.329C263.244 185.329 263.65 185.628 263.949 186.226C264.29 186.781 264.461 187.464 264.461 188.275C264.461 189.087 264.29 189.876 263.949 190.645C263.65 191.414 263.18 192.054 262.54 192.566C260.32 194.402 257.801 195.32 254.983 195.32C250.927 195.32 247.959 193.634 246.081 190.261C244.202 186.845 243.263 182.405 243.263 176.94C243.263 175.061 243.327 173.161 243.455 171.24H240.957C239.676 171.24 238.801 171.005 238.331 170.535C237.904 170.066 237.691 169.318 237.691 168.294C237.691 165.903 238.652 164.707 240.573 164.707H244.223C244.949 160.011 246.059 155.72 247.554 151.834C249.048 147.949 250.841 144.854 252.933 142.548C255.068 140.242 257.352 139.09 259.786 139.09C261.579 139.09 262.988 139.879 264.013 141.459C265.038 143.039 265.55 145.024 265.55 147.415C265.55 154.033 262.775 159.797 257.224 164.707H264.397C265.08 164.707 265.571 164.857 265.87 165.156C266.169 165.454 266.319 166.009 266.319 166.821C266.319 169.767 263.906 171.24 259.082 171.24H251.268ZM258.057 145.238C257.416 145.238 256.691 146.049 255.879 147.671C255.111 149.251 254.364 151.471 253.638 154.332C252.955 157.15 252.378 160.288 251.909 163.747C254.428 161.569 256.306 159.135 257.544 156.446C258.825 153.713 259.466 151.237 259.466 149.016C259.466 146.497 258.996 145.238 258.057 145.238ZM458.081 180.014C457.227 180.014 456.522 179.822 455.967 179.437C455.412 179.053 455.135 178.455 455.135 177.644L455.199 177.132C455.925 172.35 456.907 166.906 458.145 160.801C459.383 154.695 460.536 149.422 461.603 144.982C462.286 142.249 464.144 140.883 467.175 140.883C469.908 140.883 471.274 141.758 471.274 143.509C471.274 143.893 471.21 144.32 471.082 144.79C469.972 149.315 468.499 154.802 466.663 161.249C464.827 167.653 463.076 173.225 461.411 177.964C460.941 179.331 459.831 180.014 458.081 180.014ZM455.647 195.32C453.768 195.32 452.338 194.808 451.356 193.783C450.417 192.758 449.947 191.414 449.947 189.748C449.947 187.827 450.481 186.29 451.548 185.137C452.658 183.984 454.195 183.408 456.159 183.408C458.038 183.408 459.447 183.878 460.386 184.817C461.368 185.714 461.859 187.059 461.859 188.852C461.859 190.816 461.304 192.396 460.194 193.591C459.084 194.744 457.568 195.32 455.647 195.32Z" fill="#FD9596"/>
<path d="M212.608 68.5901C214.871 68.5901 216.002 69.5508 216.002 71.4721C216.002 73.0091 215.575 74.0765 214.722 74.6743C213.868 75.272 212.523 75.5709 210.687 75.5709H209.342L209.086 78.9652C208.958 80.9292 208.531 82.2528 207.805 82.936C207.122 83.6191 205.99 83.9607 204.41 83.9607C202.148 83.9607 201.016 82.573 201.016 79.7978C201.016 79.3281 201.038 78.9652 201.08 78.7091L201.4 75.5709C195.21 75.5709 190.513 75.5495 187.311 75.5069C186.371 75.5069 185.539 75.0799 184.813 74.226C184.087 73.3721 183.724 72.262 183.724 70.8957C183.724 70.0845 183.874 69.2305 184.173 68.3339C186.051 62.8688 188.869 56.6566 192.626 49.6971C193.438 48.2028 194.249 47.1567 195.06 46.559C195.914 45.9185 197.216 45.5983 198.967 45.5983C199.906 45.5983 200.611 45.8118 201.08 46.2388C201.593 46.6657 201.849 47.2208 201.849 47.9039C201.849 48.6297 201.635 49.3556 201.208 50.0814C197.024 57.724 194.078 63.8935 192.37 68.5901H202.233C202.745 64.6194 203.45 60.8408 204.346 57.2543C204.688 55.9307 205.243 54.9274 206.012 54.2442C206.78 53.5184 207.848 53.1555 209.214 53.1555C211.391 53.1555 212.48 54.0948 212.48 55.9734C212.48 56.5285 212.437 56.9554 212.352 57.2543C211.583 60.8835 210.9 64.6621 210.303 68.5901H212.608ZM234.008 83.3202C229.824 83.3202 226.579 81.9539 224.274 79.2214C222.011 76.4889 220.879 72.5822 220.879 67.5014C220.879 63.1891 221.541 59.3891 222.865 56.1015C224.231 52.7712 226.11 50.1881 228.501 48.3522C230.934 46.5163 233.752 45.5983 236.954 45.5983C241.139 45.5983 244.362 46.9646 246.625 49.6971C248.931 52.4297 250.083 56.3364 250.083 61.4172C250.083 65.7295 249.4 69.5508 248.034 72.8811C246.71 76.1686 244.832 78.7304 242.398 80.5663C240.007 82.4023 237.211 83.3202 234.008 83.3202ZM234.649 76.1473C236.954 76.1473 238.769 74.8664 240.092 72.3047C241.416 69.7429 242.078 66.2632 242.078 61.8655C242.078 58.9195 241.587 56.6779 240.605 55.1409C239.623 53.5611 238.193 52.7712 236.314 52.7712C234.008 52.7712 232.194 54.0735 230.87 56.6779C229.547 59.2397 228.885 62.7194 228.885 67.1171C228.885 70.0631 229.354 72.3047 230.294 73.8417C231.276 75.3788 232.727 76.1473 234.649 76.1473ZM284.345 68.5901C286.608 68.5901 287.739 69.5508 287.739 71.4721C287.739 73.0091 287.312 74.0765 286.458 74.6743C285.604 75.272 284.259 75.5709 282.424 75.5709H281.079L280.822 78.9652C280.694 80.9292 280.267 82.2528 279.542 82.936C278.858 83.6191 277.727 83.9607 276.147 83.9607C273.884 83.9607 272.753 82.573 272.753 79.7978C272.753 79.3281 272.774 78.9652 272.817 78.7091L273.137 75.5709C266.946 75.5709 262.25 75.5495 259.048 75.5069C258.108 75.5069 257.276 75.0799 256.55 74.226C255.824 73.3721 255.461 72.262 255.461 70.8957C255.461 70.0845 255.61 69.2305 255.909 68.3339C257.788 62.8688 260.606 56.6566 264.363 49.6971C265.174 48.2028 265.986 47.1567 266.797 46.559C267.651 45.9185 268.953 45.5983 270.704 45.5983C271.643 45.5983 272.347 45.8118 272.817 46.2388C273.329 46.6657 273.585 47.2208 273.585 47.9039C273.585 48.6297 273.372 49.3556 272.945 50.0814C268.761 57.724 265.815 63.8935 264.107 68.5901H273.97C274.482 64.6194 275.187 60.8408 276.083 57.2543C276.425 55.9307 276.98 54.9274 277.748 54.2442C278.517 53.5184 279.584 53.1555 280.951 53.1555C283.128 53.1555 284.217 54.0948 284.217 55.9734C284.217 56.5285 284.174 56.9554 284.089 57.2543C283.32 60.8835 282.637 64.6621 282.039 68.5901H284.345ZM53.1096 156.83C53.1096 160.459 52.1703 163.789 50.2916 166.821C48.413 169.852 45.6805 172.328 42.094 174.25C38.5076 176.171 34.238 177.303 29.2852 177.644L26.5313 193.079C25.4639 199.013 22.5606 201.981 17.8213 201.981C15.2169 201.981 12.8046 201.212 10.5844 199.675C8.40688 198.138 6.65635 195.79 5.33277 192.63C4.00919 189.471 3.34741 185.586 3.34741 180.974C3.34741 172.307 4.73503 164.963 7.51027 158.943C10.3282 152.88 14.0854 148.355 18.782 145.366C23.5213 142.334 28.7302 140.819 34.4087 140.819C38.4222 140.819 41.8165 141.523 44.5917 142.932C47.4097 144.341 49.5231 146.263 50.9321 148.696C52.3838 151.087 53.1096 153.798 53.1096 156.83ZM30.438 171.048C39.1907 169.937 43.567 165.39 43.567 157.406C43.567 154.588 42.6277 152.304 40.7491 150.553C38.9132 148.76 36.0525 147.864 32.1672 147.864C27.7695 147.864 23.9269 149.251 20.6393 152.026C17.3944 154.802 14.8753 158.666 13.0821 163.618C11.3316 168.528 10.4563 174.143 10.4563 180.462C10.4563 183.109 10.7125 185.457 11.2248 187.507C11.7799 189.556 12.463 191.157 13.2742 192.31C14.1281 193.42 14.9394 193.975 15.7079 193.975C16.7753 193.975 17.5865 192.502 18.1416 189.556L20.255 177.452C18.5899 177.196 17.864 177.089 18.0775 177.132C16.7966 176.918 15.9641 176.534 15.5798 175.979C15.1955 175.381 15.0034 174.634 15.0034 173.737C15.0034 172.798 15.2596 172.051 15.7719 171.496C16.327 170.941 17.0742 170.663 18.0135 170.663C18.4404 170.663 18.7607 170.685 18.9741 170.727C19.9988 170.898 20.7887 171.005 21.3438 171.048C21.8988 167.717 22.6887 163.256 23.7134 157.662C23.9696 156.211 24.546 155.186 25.4426 154.588C26.3819 153.948 27.4706 153.628 28.7088 153.628C30.1178 153.628 31.1211 153.905 31.7189 154.46C32.3593 154.973 32.6796 155.805 32.6796 156.958C32.6796 157.641 32.6369 158.196 32.5515 158.623L30.438 171.048ZM57.4471 195.32C54.7999 195.32 52.6865 194.36 51.1067 192.438C49.527 190.517 48.7371 187.998 48.7371 184.881C48.7371 181.465 49.527 178.242 51.1067 175.21C52.6865 172.136 54.7786 169.681 57.383 167.845C60.0302 165.967 62.8268 165.027 65.7728 165.027C66.7121 165.027 67.3312 165.22 67.6301 165.604C67.9716 165.945 68.2491 166.586 68.4626 167.525C69.3592 167.354 70.2986 167.269 71.2806 167.269C73.3727 167.269 74.4187 168.016 74.4187 169.51C74.4187 170.407 74.0985 172.542 73.4581 175.915C72.476 180.825 71.985 184.241 71.985 186.162C71.985 186.802 72.1345 187.315 72.4334 187.699C72.7749 188.083 73.2019 188.275 73.7142 188.275C74.5255 188.275 75.5075 187.763 76.6603 186.738C77.813 185.671 79.3715 183.963 81.3355 181.615C81.8478 181.017 82.4242 180.718 83.0647 180.718C83.6197 180.718 84.0467 180.974 84.3455 181.487C84.6871 181.999 84.8579 182.704 84.8579 183.6C84.8579 185.308 84.4523 186.632 83.641 187.571C81.8905 189.748 80.0332 191.584 78.0692 193.079C76.1052 194.573 74.2052 195.32 72.3693 195.32C70.9603 195.32 69.6581 194.851 68.4626 193.911C67.3098 192.929 66.4346 191.606 65.8368 189.941C63.6166 193.527 60.82 195.32 57.4471 195.32ZM59.7526 188.852C60.692 188.852 61.5886 188.297 62.4425 187.187C63.2964 186.077 63.9155 184.604 64.2998 182.768L66.6694 170.984C64.8762 171.026 63.211 171.709 61.674 173.033C60.1796 174.314 58.9841 176.022 58.0875 178.156C57.1909 180.291 56.7426 182.554 56.7426 184.945C56.7426 186.269 56.9988 187.251 57.5111 187.891C58.0662 188.532 58.8133 188.852 59.7526 188.852ZM112.443 180.846C112.998 180.846 113.425 181.124 113.724 181.679C114.066 182.191 114.237 182.853 114.237 183.664C114.237 184.646 114.087 185.415 113.788 185.97C113.489 186.525 113.02 187.016 112.379 187.443C108.707 189.919 106.018 191.755 104.31 192.951L100.211 195.704C98.5885 204.543 96.4537 211.481 93.8065 216.519C91.2021 221.6 87.8718 224.14 83.8157 224.14C81.6382 224.14 79.8663 223.457 78.5 222.091C77.1337 220.767 76.4506 219.016 76.4506 216.839C76.4506 213.808 77.6461 210.541 80.0371 207.04C82.428 203.582 86.9111 199.312 93.4863 194.231L93.8706 191.734C93.1447 192.887 92.1841 193.783 90.9886 194.424C89.8358 195.021 88.683 195.32 87.5302 195.32C84.8831 195.32 82.7696 194.36 81.1899 192.438C79.6101 190.517 78.8202 187.998 78.8202 184.881C78.8202 181.465 79.6101 178.242 81.1899 175.21C82.7696 172.136 84.8617 169.681 87.4662 167.845C90.1133 165.967 92.9099 165.027 95.8559 165.027C96.7952 165.027 97.4143 165.22 97.7132 165.604C98.0548 165.945 98.3323 166.586 98.5458 167.525C99.357 167.354 100.296 167.269 101.364 167.269C102.431 167.269 103.178 167.44 103.605 167.781C104.075 168.08 104.31 168.699 104.31 169.639C104.31 170.151 104.288 170.557 104.246 170.855C104.075 172.179 103.541 175.531 102.645 180.91C102.474 181.935 102.282 183.066 102.068 184.305C101.897 185.5 101.705 186.781 101.492 188.147C104.779 185.586 107.939 183.323 110.97 181.359C111.525 181.017 112.016 180.846 112.443 180.846ZM89.8358 188.852C90.8178 188.852 91.7571 188.254 92.6537 187.059C93.5504 185.863 94.1908 184.155 94.5751 181.935L96.6245 170.984C94.8739 171.026 93.2515 171.709 91.7571 173.033C90.2628 174.314 89.0673 176.022 88.1707 178.156C87.274 180.291 86.8257 182.554 86.8257 184.945C86.8257 186.269 87.0819 187.251 87.5943 187.891C88.1493 188.532 88.8965 188.852 89.8358 188.852ZM84.5202 217.928C85.5876 217.928 86.783 216.647 88.1066 214.085C89.4729 211.523 90.7751 207.446 92.0133 201.853C88.7257 204.671 86.3561 207.211 84.9044 209.474C83.4528 211.737 82.7269 213.722 82.7269 215.43C82.7269 216.156 82.855 216.754 83.1112 217.223C83.4101 217.693 83.8797 217.928 84.5202 217.928ZM133.227 182.64C133.782 182.64 134.209 182.896 134.507 183.408C134.849 183.92 135.02 184.625 135.02 185.521C135.02 187.059 134.657 188.382 133.931 189.492C132.736 191.328 131.156 192.758 129.192 193.783C127.271 194.808 124.965 195.32 122.275 195.32C118.176 195.32 114.995 194.103 112.733 191.67C110.47 189.193 109.338 185.863 109.338 181.679C109.338 178.733 109.957 176 111.195 173.481C112.434 170.919 114.141 168.891 116.319 167.397C118.539 165.903 121.037 165.156 123.812 165.156C126.289 165.156 128.274 165.903 129.768 167.397C131.263 168.849 132.01 170.834 132.01 173.353C132.01 176.299 130.942 178.84 128.808 180.974C126.715 183.066 123.129 184.732 118.048 185.97C119.073 187.934 120.802 188.916 123.236 188.916C124.986 188.916 126.417 188.51 127.527 187.699C128.679 186.888 130.003 185.521 131.497 183.6C132.01 182.96 132.586 182.64 133.227 182.64ZM122.723 171.432C121.144 171.432 119.799 172.35 118.689 174.186C117.621 176.022 117.088 178.242 117.088 180.846V180.974C119.607 180.377 121.592 179.48 123.044 178.285C124.495 177.089 125.221 175.701 125.221 174.122C125.221 173.31 124.986 172.67 124.517 172.2C124.09 171.688 123.492 171.432 122.723 171.432ZM337.839 141.908C339.034 142.078 339.845 142.441 340.272 142.996C340.742 143.551 340.977 144.277 340.977 145.174C340.977 148.12 339.397 149.486 336.238 149.273L333.996 149.08C331.477 148.867 328.958 148.696 326.439 148.568C323.962 148.44 321.358 148.376 318.625 148.376H315.743C315.231 154.695 314.697 160.459 314.142 165.668L325.158 165.476C326.738 165.476 327.784 165.753 328.296 166.308C328.851 166.863 329.129 167.611 329.129 168.55C329.129 170.001 328.702 171.154 327.848 172.008C326.994 172.819 325.777 173.225 324.197 173.225H313.246L312.861 175.979C311.965 183.024 310.044 188.041 307.098 191.029C304.194 194.018 300.181 195.512 295.057 195.512C292.154 195.512 289.485 194.893 287.052 193.655C284.618 192.374 282.825 190.837 281.672 189.044C281.202 188.318 280.968 187.443 280.968 186.418C280.968 185.393 281.202 184.497 281.672 183.728C282.184 182.96 282.803 182.575 283.529 182.575C284.042 182.575 284.533 182.746 285.002 183.088C285.515 183.429 286.155 184.091 286.924 185.073C288.973 187.763 291.513 189.108 294.545 189.108C296.979 189.108 299.007 188.126 300.629 186.162C302.294 184.155 303.362 181.017 303.831 176.747L304.216 173.225H301.141C300.159 173.225 299.306 172.948 298.58 172.392C297.897 171.837 297.555 171.048 297.555 170.023C297.555 168.699 297.897 167.696 298.58 167.013C299.263 166.287 300.266 165.924 301.59 165.924C302.785 165.924 303.959 165.903 305.112 165.86C305.625 161.163 306.18 155.464 306.777 148.76C302.166 149.187 298.921 149.934 297.043 151.002C295.164 152.069 294.225 153.649 294.225 155.741C294.225 157.193 294.652 158.58 295.506 159.904C295.762 160.288 295.89 160.672 295.89 161.057C295.89 161.825 295.463 162.508 294.609 163.106C293.755 163.661 292.794 163.939 291.727 163.939C290.574 163.939 289.592 163.597 288.781 162.914C288.269 162.487 287.778 161.612 287.308 160.288C286.838 158.965 286.603 157.492 286.603 155.869C286.603 150.575 289.315 146.732 294.737 144.341C300.202 141.95 308.165 140.755 318.625 140.755C325.884 140.755 332.288 141.139 337.839 141.908ZM361.737 175.338C362.292 175.338 362.719 175.616 363.017 176.171C363.316 176.726 363.466 177.431 363.466 178.285C363.466 180.334 362.847 181.551 361.608 181.935C359.047 182.832 356.229 183.344 353.155 183.472C352.343 187.059 350.742 189.941 348.351 192.118C345.96 194.253 343.249 195.32 340.218 195.32C337.656 195.32 335.457 194.701 333.621 193.463C331.828 192.225 330.462 190.581 329.522 188.532C328.583 186.482 328.113 184.262 328.113 181.871C328.113 178.626 328.733 175.744 329.971 173.225C331.209 170.663 332.917 168.678 335.094 167.269C337.272 165.817 339.684 165.091 342.331 165.091C345.576 165.091 348.181 166.223 350.145 168.486C352.151 170.706 353.325 173.46 353.667 176.747C355.674 176.619 358.065 176.192 360.84 175.467C361.181 175.381 361.48 175.338 361.737 175.338ZM340.73 188.532C342.096 188.532 343.271 187.977 344.253 186.866C345.277 185.756 345.96 184.155 346.302 182.063C344.978 181.166 343.954 179.992 343.228 178.541C342.545 177.089 342.203 175.552 342.203 173.93C342.203 173.246 342.267 172.563 342.395 171.88H342.075C340.367 171.88 338.937 172.713 337.784 174.378C336.674 176 336.119 178.306 336.119 181.295C336.119 183.643 336.567 185.436 337.464 186.674C338.403 187.912 339.492 188.532 340.73 188.532ZM364.501 195.32C362.58 195.32 361 194.445 359.762 192.694C358.567 190.901 357.969 188.681 357.969 186.034C357.969 182.832 358.182 179.907 358.609 177.26C359.036 174.57 359.741 171.731 360.723 168.742C361.15 167.461 361.748 166.543 362.516 165.988C363.285 165.433 364.501 165.156 366.167 165.156C367.106 165.156 367.746 165.305 368.088 165.604C368.472 165.903 368.664 166.351 368.664 166.949C368.664 167.29 368.429 168.443 367.96 170.407C367.533 171.987 367.191 173.417 366.935 174.698C366.081 179.181 365.654 182.17 365.654 183.664C365.654 184.561 365.761 185.201 365.974 185.586C366.188 185.927 366.529 186.098 366.999 186.098C367.64 186.098 368.429 185.457 369.369 184.177C370.351 182.896 371.375 180.953 372.443 178.349C373.553 175.744 374.62 172.542 375.645 168.742C375.987 167.461 376.499 166.543 377.182 165.988C377.908 165.433 378.975 165.156 380.384 165.156C381.366 165.156 382.049 165.284 382.434 165.54C382.818 165.753 383.01 166.18 383.01 166.821C383.01 167.888 382.476 170.813 381.409 175.595C380.214 181.06 379.616 184.433 379.616 185.714C379.616 186.525 379.787 187.165 380.128 187.635C380.47 188.062 380.918 188.275 381.473 188.275C382.327 188.275 383.33 187.763 384.483 186.738C385.679 185.671 387.258 183.963 389.222 181.615C389.735 181.017 390.311 180.718 390.952 180.718C391.507 180.718 391.934 180.974 392.232 181.487C392.574 181.999 392.745 182.704 392.745 183.6C392.745 185.308 392.339 186.632 391.528 187.571C389.692 189.834 387.707 191.691 385.572 193.143C383.48 194.594 381.089 195.32 378.399 195.32C376.35 195.32 374.834 194.53 373.852 192.951C372.913 191.371 372.443 189.151 372.443 186.29C371.717 189.193 370.628 191.435 369.177 193.015C367.725 194.552 366.167 195.32 364.501 195.32ZM392.099 195.32C390.476 195.32 389.324 194.466 388.641 192.758C388 191.051 387.68 188.318 387.68 184.561C387.68 179.01 388.47 173.737 390.049 168.742C390.434 167.504 391.053 166.607 391.907 166.052C392.803 165.454 394.042 165.156 395.621 165.156C396.475 165.156 397.073 165.262 397.415 165.476C397.756 165.689 397.927 166.095 397.927 166.693C397.927 167.376 397.607 168.913 396.966 171.304C396.539 173.012 396.198 174.506 395.942 175.787C395.685 177.068 395.472 178.647 395.301 180.526C396.71 176.854 398.29 173.865 400.04 171.56C401.791 169.254 403.499 167.611 405.164 166.629C406.872 165.647 408.43 165.156 409.839 165.156C412.614 165.156 414.002 166.543 414.002 169.318C414.002 170.984 413.532 173.994 412.593 178.349C411.782 182.063 411.376 184.518 411.376 185.714C411.376 187.421 411.995 188.275 413.233 188.275C414.087 188.275 415.091 187.763 416.243 186.738C417.439 185.671 419.019 183.963 420.983 181.615C421.495 181.017 422.071 180.718 422.712 180.718C423.267 180.718 423.694 180.974 423.993 181.487C424.334 181.999 424.505 182.704 424.505 183.6C424.505 185.308 424.1 186.632 423.288 187.571C421.452 189.834 419.467 191.691 417.332 193.143C415.24 194.594 412.849 195.32 410.159 195.32C407.982 195.32 406.338 194.701 405.228 193.463C404.118 192.182 403.563 190.346 403.563 187.955C403.563 186.76 403.862 184.625 404.459 181.551C405.014 178.861 405.292 177.004 405.292 175.979C405.292 175.296 405.057 174.954 404.587 174.954C404.032 174.954 403.243 175.68 402.218 177.132C401.236 178.541 400.211 180.419 399.144 182.768C398.119 185.116 397.286 187.592 396.646 190.197C396.176 192.203 395.621 193.57 394.981 194.296C394.383 194.979 393.422 195.32 392.099 195.32ZM442.636 180.718C443.105 184.219 443.788 187.678 444.685 191.093C444.856 191.648 444.941 192.225 444.941 192.823C444.941 194.744 443.767 195.704 441.419 195.704C440.095 195.704 439.07 195.342 438.345 194.616C437.661 193.89 437.021 192.524 436.423 190.517L436.359 190.261C434.737 192.267 433.264 193.612 431.94 194.296C430.659 194.979 429.165 195.32 427.457 195.32C424.853 195.32 422.697 194.36 420.989 192.438C419.324 190.474 418.491 187.934 418.491 184.817C418.491 181.401 419.217 178.242 420.668 175.338C422.12 172.435 424.106 170.066 426.625 168.23C429.144 166.351 431.962 165.22 435.078 164.835C435.89 156.766 437.427 149.742 439.69 143.765C441.995 137.787 445.048 134.799 448.848 134.799C450.684 134.799 452.199 135.631 453.395 137.296C454.633 138.962 455.252 141.481 455.252 144.854C455.252 149.55 454.099 155.037 451.794 161.313C449.488 167.589 446.436 174.058 442.636 180.718ZM448.143 141.075C446.905 141.075 445.731 144.234 444.621 150.553C443.554 156.872 442.828 163.747 442.443 171.176C447.183 160.929 449.552 152.603 449.552 146.198C449.552 144.576 449.403 143.317 449.104 142.42C448.848 141.523 448.528 141.075 448.143 141.075ZM429.699 188.852C430.553 188.852 431.364 188.532 432.132 187.891C432.944 187.251 433.968 186.012 435.206 184.177C434.78 181.06 434.566 177.836 434.566 174.506C434.566 173.182 434.587 172.158 434.63 171.432C432.282 172.115 430.339 173.673 428.802 176.107C427.265 178.541 426.496 181.231 426.496 184.177C426.496 187.293 427.564 188.852 429.699 188.852Z" fill="black"/>
</svg>
