<svg width="256" height="256" viewBox="0 0 256 256" fill="none" xmlns="http://www.w3.org/2000/svg">
<path d="M49.9141 60.0433C49.9141 60.575 49.7565 61.0947 49.4611 61.5368C49.1657 61.9788 48.7459 62.3234 48.2547 62.5269C47.7635 62.7303 47.223 62.7836 46.7015 62.6798C46.1801 62.5761 45.7011 62.3201 45.3251 61.9441C44.9492 61.5682 44.6931 61.0892 44.5894 60.5677C44.4857 60.0463 44.5389 59.5058 44.7424 59.0146C44.9459 58.5234 45.2904 58.1035 45.7325 57.8081C46.1745 57.5128 46.6943 57.3551 47.226 57.3551C47.9389 57.3551 48.6227 57.6383 49.1268 58.1425C49.6309 58.6466 49.9141 59.3303 49.9141 60.0433ZM76.796 57.3551C76.2643 57.3551 75.7446 57.5128 75.3025 57.8081C74.8605 58.1035 74.5159 58.5234 74.3125 59.0146C74.109 59.5058 74.0558 60.0463 74.1595 60.5677C74.2632 61.0892 74.5192 61.5682 74.8952 61.9441C75.2711 62.3201 75.7501 62.5761 76.2716 62.6798C76.793 62.7836 77.3335 62.7303 77.8247 62.5269C78.3159 62.3234 78.7358 61.9788 79.0312 61.5368C79.3265 61.0947 79.4842 60.575 79.4842 60.0433C79.4842 59.3303 79.201 58.6466 78.6969 58.1425C78.1927 57.6383 77.509 57.3551 76.796 57.3551ZM95.6133 30.238V58.6992C95.6133 75.7356 80.5259 89.6134 62.011 89.6134C43.4961 89.6134 28.4086 75.7356 28.4086 58.6992V30.238C28.4067 29.439 28.6421 28.6575 29.085 27.9926C29.528 27.3277 30.1585 26.8093 30.8965 26.5033C31.6345 26.1973 32.4468 26.1174 33.2303 26.2738C34.0138 26.4302 34.7332 26.8159 35.2971 27.3818L41.8496 33.9679C44.566 32.1082 47.5294 30.6378 50.6534 29.5996C50.7718 29.5504 50.896 29.5165 51.023 29.4987C58.1702 27.2142 65.8518 27.2142 72.9989 29.4987C73.1259 29.5165 73.2501 29.5504 73.3686 29.5996C76.4926 30.6378 79.4559 32.1082 82.1724 33.9679L88.7248 27.3818C89.2888 26.8159 90.0082 26.4302 90.7917 26.2738C91.5752 26.1174 92.3875 26.1973 93.1255 26.5033C93.8635 26.8093 94.494 27.3277 94.9369 27.9926C95.3799 28.6575 95.6153 29.439 95.6133 30.238ZM92.9251 30.238C92.9246 29.9707 92.8444 29.7097 92.6947 29.4882C92.5451 29.2668 92.3328 29.0949 92.0851 28.9947C91.8417 28.8941 91.5737 28.8692 91.316 28.9231C91.0583 28.9771 90.8228 29.1074 90.6402 29.2971L83.2477 36.6561C83.0206 36.8838 82.7195 37.0225 82.3989 37.0472C82.0783 37.0718 81.7595 36.9808 81.5003 36.7905C79.2289 35.111 76.7426 33.7436 74.1078 32.7246V42.5701C74.1078 42.9265 73.9662 43.2684 73.7142 43.5205C73.4621 43.7726 73.1202 43.9142 72.7637 43.9142C72.4073 43.9142 72.0654 43.7726 71.8133 43.5205C71.5612 43.2684 71.4196 42.9265 71.4196 42.5701V31.8173C68.794 31.0576 66.0862 30.6176 63.3551 30.5068V42.5701C63.3551 42.9265 63.2135 43.2684 62.9614 43.5205C62.7093 43.7726 62.3675 43.9142 62.011 43.9142C61.6545 43.9142 61.3126 43.7726 61.0606 43.5205C60.8085 43.2684 60.6669 42.9265 60.6669 42.5701V30.5068C57.9358 30.6176 55.228 31.0576 52.6023 31.8173V42.5701C52.6023 42.9265 52.4607 43.2684 52.2087 43.5205C51.9566 43.7726 51.6147 43.9142 51.2582 43.9142C50.9018 43.9142 50.5599 43.7726 50.3078 43.5205C50.0558 43.2684 49.9141 42.9265 49.9141 42.5701V32.7246C47.2794 33.7436 44.7931 35.111 42.5216 36.7905C42.2624 36.9808 41.9436 37.0718 41.623 37.0472C41.3025 37.0225 41.0013 36.8838 40.7743 36.6561L33.3818 29.2971C33.2651 29.1727 33.1248 29.073 32.969 29.0037C32.8131 28.9345 32.645 28.8971 32.4745 28.8939C32.2952 28.8894 32.1168 28.9209 31.9498 28.9864C31.7829 29.0519 31.6307 29.1502 31.5023 29.2755C31.3739 29.4008 31.2719 29.5505 31.2023 29.7158C31.1326 29.8811 31.0968 30.0586 31.0968 30.238V58.6992C31.0968 73.8539 44.2353 86.2531 60.6669 86.8916V78.0878L55.6937 73.081C55.4996 72.8222 55.4054 72.502 55.4283 72.1793C55.4512 71.8565 55.5898 71.5529 55.8186 71.3241C56.0474 71.0954 56.351 70.9568 56.6737 70.9338C56.9965 70.9109 57.3166 71.0052 57.5755 71.1993L62.011 75.6012L66.4465 71.1993C66.7053 71.0052 67.0255 70.9109 67.3482 70.9338C67.671 70.9568 67.9746 71.0954 68.2034 71.3241C68.4321 71.5529 68.5707 71.8565 68.5937 72.1793C68.6166 72.502 68.5224 72.8222 68.3282 73.081L63.3551 78.0878V86.8916C79.7866 86.2531 92.9251 73.8539 92.9251 58.6992V30.238Z" fill="black"/>
<path d="M121.602 130.043C121.602 130.575 121.445 131.095 121.149 131.537C120.854 131.979 120.434 132.323 119.943 132.527C119.452 132.73 118.911 132.784 118.39 132.68C117.868 132.576 117.389 132.32 117.013 131.944C116.637 131.568 116.381 131.089 116.278 130.568C116.174 130.046 116.227 129.506 116.431 129.015C116.634 128.523 116.979 128.104 117.421 127.808C117.863 127.513 118.382 127.355 118.914 127.355C119.627 127.355 120.311 127.638 120.815 128.142C121.319 128.647 121.602 129.33 121.602 130.043ZM143.108 132.732C143.64 132.732 144.159 132.574 144.601 132.278C145.043 131.983 145.388 131.563 145.591 131.072C145.795 130.581 145.848 130.04 145.744 129.519C145.641 128.997 145.385 128.518 145.009 128.142C144.633 127.767 144.154 127.511 143.632 127.407C143.111 127.303 142.57 127.356 142.079 127.56C141.588 127.763 141.168 128.108 140.873 128.55C140.577 128.992 140.42 129.512 140.42 130.043C140.42 130.756 140.703 131.44 141.207 131.944C141.711 132.448 142.395 132.732 143.108 132.732ZM165.655 130.144C164.834 130.524 163.909 130.615 163.03 130.401C162.151 130.188 161.371 129.682 160.816 128.968L159.237 126.952V144.828C159.237 148.037 157.963 151.114 155.694 153.382C153.425 155.651 150.348 156.925 147.14 156.925H114.882C111.674 156.925 108.597 155.651 106.328 153.382C104.06 151.114 102.785 148.037 102.785 144.828V126.952L101.206 128.968C100.651 129.682 99.8706 130.188 98.9918 130.401C98.1129 130.615 97.1877 130.524 96.367 130.144C95.5384 129.785 94.8589 129.151 94.4428 128.349C94.0267 127.547 93.8993 126.627 94.082 125.742L99.5928 96.3066C99.6908 95.765 99.8995 95.2495 100.206 94.7923C100.512 94.3351 100.91 93.946 101.373 93.6495C101.837 93.353 102.357 93.1554 102.901 93.0691C103.444 92.9828 104 93.0096 104.532 93.1479L123.114 97.7851H138.908L157.49 93.1479C158.022 93.0096 158.578 92.9828 159.121 93.0691C159.665 93.1554 160.185 93.353 160.649 93.6495C161.112 93.946 161.51 94.3351 161.816 94.7923C162.123 95.2495 162.331 95.765 162.429 96.3066L167.94 125.742C168.123 126.627 167.995 127.547 167.579 128.349C167.163 129.151 166.484 129.785 165.655 130.144ZM120.594 99.9356L103.894 95.7353H103.558C103.292 95.7304 103.033 95.8131 102.819 95.9705C102.669 96.0693 102.541 96.1977 102.442 96.348C102.344 96.4983 102.278 96.6672 102.247 96.8442L96.703 126.213C96.6332 126.513 96.6689 126.829 96.8042 127.106C96.9394 127.383 97.1659 127.606 97.4457 127.736C97.7255 127.866 98.0415 127.895 98.3407 127.82C98.6399 127.745 98.904 127.569 99.0888 127.322L120.594 99.9356ZM156.549 123.558L138.437 100.473H123.585L105.473 123.558V144.828C105.482 147.321 106.476 149.709 108.239 151.471C110.001 153.234 112.389 154.228 114.882 154.237H129.667V148.088L124.694 143.081C124.5 142.822 124.405 142.502 124.428 142.179C124.451 141.857 124.59 141.553 124.819 141.324C125.047 141.095 125.351 140.957 125.674 140.934C125.996 140.911 126.317 141.005 126.576 141.199L131.011 145.601L135.447 141.199C135.705 141.005 136.026 140.911 136.348 140.934C136.671 140.957 136.975 141.095 137.203 141.324C137.432 141.553 137.571 141.857 137.594 142.179C137.617 142.502 137.522 142.822 137.328 143.081L132.355 148.088V154.237H147.14C149.633 154.228 152.021 153.234 153.783 151.471C155.546 149.709 156.54 147.321 156.549 144.828V123.558ZM165.319 126.213L159.775 96.8106C159.744 96.6336 159.678 96.4647 159.58 96.3144C159.482 96.1641 159.353 96.0357 159.203 95.9369C158.883 95.7379 158.499 95.666 158.128 95.7353L141.428 99.9356L162.933 127.322C163.118 127.569 163.382 127.745 163.681 127.82C163.981 127.895 164.297 127.866 164.576 127.736C164.856 127.606 165.083 127.383 165.218 127.106C165.353 126.829 165.389 126.513 165.319 126.213Z" fill="black"/>
<path d="M76.796 179.85C76.796 180.381 76.6384 180.901 76.343 181.343C76.0476 181.785 75.6278 182.13 75.1366 182.333C74.6454 182.537 74.1049 182.59 73.5834 182.486C73.0619 182.382 72.583 182.126 72.207 181.75C71.8311 181.374 71.575 180.895 71.4713 180.374C71.3676 179.853 71.4208 179.312 71.6243 178.821C71.8277 178.33 72.1723 177.91 72.6144 177.614C73.0564 177.319 73.5762 177.161 74.1078 177.161C74.8208 177.161 75.5046 177.445 76.0087 177.949C76.5128 178.453 76.796 179.137 76.796 179.85ZM58.2811 201.826L44.8402 217.955C44.613 218.233 44.5035 218.589 44.5348 218.946C44.5662 219.304 44.7361 219.636 45.0082 219.87C45.2584 220.064 45.5654 220.17 45.8819 220.172C46.0784 220.169 46.2721 220.125 46.4512 220.045C46.6303 219.964 46.791 219.847 46.9235 219.702L60.3645 203.573C60.5962 203.297 60.7087 202.94 60.6772 202.58C60.6456 202.221 60.4727 201.889 60.1965 201.657C59.9202 201.426 59.5632 201.313 59.204 201.345C58.8448 201.376 58.5128 201.549 58.2811 201.826ZM98.3015 183.882C98.2993 184.102 98.243 184.318 98.1375 184.512C98.032 184.705 97.8807 184.87 97.6967 184.991L90.237 189.964V197.323C90.2192 206.229 86.6733 214.766 80.3755 221.064C74.0776 227.361 65.5411 230.907 56.6346 230.925H21.6882C21.435 230.92 21.1881 230.845 20.9747 230.709C20.7613 230.572 20.5896 230.38 20.4785 230.152C20.3635 229.927 20.3181 229.672 20.348 229.421C20.3779 229.17 20.4818 228.933 20.6465 228.741L52.6023 188.788V182.538C52.5977 178.002 54.2312 173.618 57.2024 170.191C60.1735 166.764 64.2824 164.526 68.7727 163.888C73.2631 163.25 77.8328 164.255 81.6408 166.719C85.4488 169.182 88.239 172.939 89.4977 177.296L97.6967 182.773C97.8807 182.894 98.032 183.059 98.1375 183.252C98.243 183.445 98.2993 183.662 98.3015 183.882ZM94.5381 183.882L87.5824 179.245C87.3113 179.065 87.119 178.789 87.0448 178.472C86.069 174.661 83.7339 171.337 80.4789 169.127C77.2239 166.918 73.2734 165.974 69.371 166.473C65.4686 166.973 61.8835 168.882 59.2902 171.841C56.697 174.799 55.2745 178.604 55.2905 182.538V189.258C55.2941 189.566 55.1867 189.864 54.9881 190.098L24.4772 228.237H56.6346C64.8308 228.228 72.6888 224.968 78.4844 219.173C84.28 213.377 87.5399 205.519 87.5488 197.323V189.258C87.551 189.038 87.6074 188.822 87.7128 188.628C87.8183 188.435 87.9697 188.27 88.1536 188.149L94.5381 183.882Z" fill="black"/>
<path d="M205.108 179.538C205.108 180.069 204.95 180.589 204.655 181.031C204.359 181.473 203.94 181.818 203.448 182.021C202.957 182.225 202.417 182.278 201.895 182.174C201.374 182.071 200.895 181.815 200.519 181.439C200.143 181.063 199.887 180.584 199.783 180.062C199.679 179.541 199.733 179 199.936 178.509C200.14 178.018 200.484 177.598 200.926 177.303C201.368 177.007 201.888 176.85 202.42 176.85C203.133 176.85 203.816 177.133 204.32 177.637C204.825 178.141 205.108 178.825 205.108 179.538ZM215.625 209.477C206.788 218.348 192.473 221.843 173.018 220.029C173.589 224.531 174.395 229.303 175.504 234.343C175.544 234.515 175.55 234.694 175.52 234.868C175.491 235.042 175.428 235.209 175.334 235.359C175.241 235.508 175.119 235.638 174.975 235.741C174.831 235.843 174.668 235.916 174.496 235.956H174.194C173.891 235.95 173.599 235.845 173.362 235.657C173.125 235.469 172.957 235.208 172.883 234.914C171.761 229.888 170.897 224.807 170.296 219.693C165.524 219.121 160.45 218.281 155.074 217.105C154.726 217.025 154.425 216.81 154.236 216.507C154.047 216.205 153.986 215.84 154.066 215.492C154.146 215.145 154.361 214.843 154.664 214.654C154.966 214.465 155.331 214.404 155.679 214.484C160.719 215.559 165.491 216.4 169.993 216.971C168.179 197.549 171.674 183.234 180.511 174.397C181.649 173.262 182.874 172.217 184.174 171.272H184.207C197.447 161.661 215.558 164.551 221.203 165.761C221.961 165.924 222.656 166.303 223.204 166.851C223.753 167.4 224.131 168.094 224.295 168.852C225.639 175.001 228.965 196.205 215.625 209.477ZM213.744 207.596L214.92 206.352C206.808 205.826 199.17 202.347 193.448 196.574C187.675 190.852 184.196 183.214 183.67 175.102L182.426 176.278C174.093 184.645 170.833 198.389 172.715 217.307C191.633 219.189 205.377 215.929 213.744 207.596ZM221.674 169.39C221.606 169.14 221.475 168.913 221.292 168.73C221.109 168.547 220.882 168.416 220.632 168.348C215.357 167.206 198.589 164.518 186.291 173.053C186.335 181.175 189.581 188.953 195.325 194.697C201.069 200.441 208.847 203.687 216.969 203.731C225.504 191.433 222.816 174.665 221.674 169.39Z" fill="black"/>
<path d="M216.936 32.4221C213.819 29.239 210.097 26.7129 205.987 24.993C201.878 23.2732 197.466 22.3944 193.011 22.4086H190.323C189.966 22.4086 189.624 22.5502 189.372 22.8023C189.12 23.0544 188.979 23.3962 188.979 23.7527V33.7662L154.671 54.8685C154.516 54.9653 154.382 55.0928 154.278 55.243C154.174 55.3932 154.102 55.563 154.066 55.7421C154.028 55.9224 154.029 56.1089 154.069 56.2887C154.11 56.4685 154.189 56.6374 154.301 56.7838L158.905 63.2354C159.937 64.666 161.351 65.7775 162.985 66.443C164.619 67.1084 166.407 67.3011 168.145 66.9989C173.186 66.1252 182.628 65.4532 191.062 69.8887L180.713 84.3713C177.68 83.0567 174.878 81.2642 172.413 79.0621C172.283 78.9385 172.131 78.8419 171.963 78.7781C171.796 78.7142 171.618 78.6844 171.439 78.6904C171.26 78.6964 171.084 78.738 170.922 78.8129C170.759 78.8877 170.613 78.9943 170.493 79.1263C170.372 79.2583 170.278 79.4131 170.218 79.5816C170.158 79.7502 170.132 79.929 170.142 80.1077C170.152 80.2864 170.197 80.4613 170.276 80.6222C170.354 80.7831 170.464 80.9267 170.598 81.0447C176.752 86.5757 184.737 89.6286 193.011 89.6133H193.683C202.384 89.3983 210.665 85.8324 216.801 79.6595C222.936 73.4865 226.451 65.1832 226.613 56.4814C226.688 52.0282 225.87 47.6052 224.207 43.4731C222.545 39.3411 220.073 35.5836 216.936 32.4221ZM223.925 56.4478C223.797 64.4562 220.572 72.1037 214.927 77.786C209.283 83.4683 201.657 86.7437 193.649 86.9251C190.137 86.992 186.639 86.4695 183.3 85.3794L193.717 70.7624C198.222 70.5803 202.482 68.6639 205.607 65.4138C208.732 62.1636 210.479 57.8314 210.484 53.3228C210.484 52.9663 210.343 52.6244 210.091 52.3723C209.838 52.1203 209.497 51.9787 209.14 51.9787C208.784 51.9787 208.442 52.1203 208.19 52.3723C207.938 52.6244 207.796 52.9663 207.796 53.3228C207.788 57.1839 206.274 60.8896 203.575 63.651C200.877 66.4124 197.207 68.0115 193.347 68.1078C183.972 62.6306 173.286 63.4035 167.675 64.3443C166.435 64.5613 165.16 64.4242 163.995 63.9487C162.83 63.4731 161.822 62.6785 161.089 61.6561L157.325 56.4142L191.028 35.6479C191.226 35.5302 191.388 35.3626 191.5 35.1621C191.613 34.9616 191.67 34.7351 191.667 34.5055V25.0968H193.011C197.108 25.0964 201.164 25.9103 204.943 27.4911C208.723 29.0719 212.15 31.3882 215.026 34.3052C217.903 37.2223 220.171 40.682 221.698 44.4833C223.226 48.2845 223.983 52.3515 223.925 56.4478ZM194.355 46.6023C194.355 47.134 194.197 47.6537 193.902 48.0958C193.607 48.5378 193.187 48.8824 192.696 49.0859C192.204 49.2893 191.664 49.3426 191.142 49.2388C190.621 49.1351 190.142 48.8791 189.766 48.5031C189.39 48.1272 189.134 47.6482 189.03 47.1267C188.927 46.6053 188.98 46.0648 189.183 45.5736C189.387 45.0824 189.731 44.6625 190.173 44.3671C190.615 44.0718 191.135 43.9141 191.667 43.9141C192.38 43.9141 193.064 44.1973 193.568 44.7015C194.072 45.2056 194.355 45.8893 194.355 46.6023Z" fill="black"/>
</svg>
