<svg width="256" height="256" viewBox="0 0 256 256" fill="none" xmlns="http://www.w3.org/2000/svg">
<path d="M172 68C172 69.5822 171.531 71.129 170.652 72.4446C169.773 73.7602 168.523 74.7855 167.061 75.391C165.6 75.9965 163.991 76.155 162.439 75.8463C160.887 75.5376 159.462 74.7757 158.343 73.6568C157.224 72.538 156.462 71.1126 156.154 69.5607C155.845 68.0089 156.003 66.4003 156.609 64.9385C157.214 63.4767 158.24 62.2273 159.555 61.3482C160.871 60.4692 162.418 60 164 60C166.122 60 168.157 60.8428 169.657 62.3431C171.157 63.8434 172 65.8783 172 68ZM116.9 133.4L76.9 181.4C76.2239 182.228 75.8979 183.287 75.9913 184.352C76.0847 185.416 76.5901 186.403 77.4 187.1C78.1447 187.677 79.0581 187.993 80 188C80.5848 187.99 81.1613 187.86 81.6943 187.62C82.2273 187.379 82.7056 187.032 83.1 186.6L123.1 138.6C123.79 137.778 124.124 136.715 124.031 135.646C123.937 134.577 123.422 133.59 122.6 132.9C121.778 132.21 120.715 131.876 119.646 131.969C118.577 132.063 117.59 132.578 116.9 133.4ZM236 80C235.993 80.6554 235.826 81.2992 235.512 81.8746C235.198 82.45 234.747 82.9395 234.2 83.3L212 98.1V120C211.947 146.505 201.394 171.91 182.652 190.652C163.91 209.394 138.505 219.947 112 220H7.99999C7.2465 219.985 6.51186 219.762 5.87676 219.356C5.24167 218.95 4.7307 218.377 4.39999 217.7C4.05778 217.029 3.92261 216.272 4.01163 215.524C4.10066 214.776 4.40986 214.072 4.89999 213.5L100 94.6V76C99.986 62.5026 104.847 49.4543 113.69 39.2565C122.532 29.0586 134.76 22.3975 148.123 20.4989C161.486 18.6003 175.085 21.592 186.418 28.9235C197.751 36.255 206.054 47.4329 209.8 60.4L234.2 76.7C234.747 77.0605 235.198 77.5499 235.512 78.1254C235.826 78.7008 235.993 79.3446 236 80ZM224.8 80L204.1 66.2C203.293 65.6651 202.721 64.8425 202.5 63.9C199.596 52.5575 192.647 42.6675 182.96 36.0912C173.273 29.515 161.517 26.706 149.903 28.193C138.29 29.68 127.62 35.3605 119.903 44.1652C112.185 52.97 107.952 64.2918 108 76V96C108.011 96.9145 107.691 97.8021 107.1 98.5L16.3 212H112C136.392 211.974 159.777 202.272 177.025 185.025C194.272 167.777 203.974 144.392 204 120V96C204.007 95.3446 204.174 94.7008 204.488 94.1254C204.802 93.5499 205.253 93.0605 205.8 92.7L224.8 80Z" fill="black"/>
</svg>
