<svg width="371" height="371" viewBox="0 0 371 371" fill="none" xmlns="http://www.w3.org/2000/svg">
<g clip-path="url(#clip0_102_12)">
<path d="M313.893 154.811C309.742 145.967 302.671 138.852 293.907 134.64C296.312 125.22 295.411 115.233 291.313 106.366C288.969 101.269 285.641 96.6844 281.52 92.8769C277.397 89.0683 272.563 86.1121 267.294 84.1783C262.025 82.2445 256.426 81.3713 250.818 81.6089C245.211 81.8464 239.706 83.1901 234.619 85.5626C229.533 87.9351 224.966 91.2896 221.18 95.4332C217.394 99.5769 214.465 104.428 212.561 109.708C210.657 114.987 209.815 120.591 210.084 126.197C210.313 130.965 211.341 135.654 213.12 140.07L132.771 177.546C130.531 173.345 127.6 169.543 124.095 166.304C119.974 162.494 115.14 159.537 109.871 157.602C104.603 155.667 99.0039 154.793 93.3964 155.029C87.7888 155.266 82.2833 156.608 77.1964 158.979C72.1095 161.351 67.5415 164.704 63.7551 168.847C59.9687 172.99 57.0386 177.841 55.1332 183.12C53.2278 188.399 52.3848 194.003 52.6525 199.609C52.9201 205.213 54.2924 210.708 56.6903 215.78C60.9925 225.002 68.2392 231.837 76.6948 235.937C74.4007 245.049 74.9823 254.984 79.2765 264.216C81.6204 269.314 84.9485 273.898 89.0696 277.705C93.192 281.514 98.0266 284.47 103.295 286.404C108.564 288.338 114.163 289.211 119.771 288.974C125.378 288.736 130.884 287.392 135.97 285.02C141.056 282.647 145.624 279.293 149.409 275.149C153.195 271.005 156.124 266.154 158.028 260.875C159.932 255.595 160.774 249.991 160.505 244.385C160.277 239.618 159.248 234.929 157.469 230.512L237.814 193.047C240.054 197.249 242.985 201.05 246.49 204.29C250.611 208.099 255.445 211.057 260.714 212.992C265.982 214.927 271.581 215.801 277.189 215.565C282.796 215.328 288.302 213.986 293.389 211.614C298.476 209.243 303.044 205.889 306.83 201.746C310.616 197.604 313.547 192.753 315.452 187.474C317.357 182.195 318.2 176.591 317.933 170.985C317.665 165.38 316.292 159.883 313.893 154.811Z" fill="black" stroke="white" stroke-width="5"/>
<path d="M149.425 206.122C149.856 207.045 150.044 207.953 149.989 208.846C149.938 209.729 149.658 210.537 149.149 211.27C148.637 211.996 147.906 212.58 146.956 213.023C146.528 213.223 146.097 213.387 145.661 213.516C145.235 213.648 144.791 213.74 144.327 213.791C143.864 213.842 143.363 213.848 142.824 213.81L141.154 210.227C141.921 210.349 142.662 210.379 143.377 210.318C144.096 210.247 144.71 210.093 145.218 209.856C145.51 209.72 145.726 209.562 145.865 209.381C146.01 209.198 146.089 209.004 146.101 208.8C146.117 208.586 146.075 208.37 145.973 208.153C145.872 207.936 145.742 207.753 145.581 207.605C145.418 207.45 145.155 207.32 144.793 207.217C144.428 207.106 143.895 207.008 143.193 206.922C142.629 206.846 142.106 206.751 141.624 206.638C141.138 206.517 140.692 206.349 140.286 206.134C139.883 205.908 139.511 205.607 139.17 205.229C138.835 204.848 138.529 204.359 138.25 203.762C137.839 202.88 137.655 202.032 137.697 201.22C137.739 200.407 138.012 199.664 138.516 198.991C139.021 198.318 139.761 197.754 140.738 197.298C141.356 197.01 142.018 196.809 142.724 196.694C143.431 196.58 144.187 196.554 144.992 196.616L145.493 200.162C144.826 200.076 144.235 200.058 143.721 200.108C143.207 200.158 142.761 200.271 142.381 200.448C142.129 200.565 141.943 200.706 141.821 200.87C141.703 201.024 141.64 201.19 141.632 201.367C141.624 201.545 141.662 201.725 141.748 201.908C141.871 202.173 142.021 202.38 142.198 202.528C142.375 202.677 142.65 202.797 143.022 202.888C143.399 202.968 143.949 203.05 144.674 203.134C145.442 203.222 146.124 203.374 146.721 203.591C147.325 203.806 147.849 204.115 148.293 204.519C148.738 204.923 149.115 205.457 149.425 206.122ZM163.512 205.055L159.97 206.707L157.075 200.498L153.93 201.965L156.825 208.173L153.283 209.825L146.344 194.944L149.886 193.293L152.511 198.921L155.656 197.455L153.031 191.826L156.574 190.175L163.512 205.055ZM173.408 191.358C173.99 192.606 174.382 193.766 174.584 194.837C174.789 195.897 174.803 196.866 174.625 197.742C174.451 198.608 174.088 199.372 173.537 200.033C172.99 200.685 172.256 201.226 171.333 201.656C170.417 202.083 169.528 202.295 168.668 202.292C167.807 202.289 166.985 202.077 166.203 201.657C165.417 201.23 164.679 200.595 163.989 199.752C163.299 198.91 162.662 197.864 162.08 196.615C161.308 194.96 160.871 193.466 160.771 192.133C160.676 190.797 160.914 189.642 161.483 188.666C162.059 187.687 162.961 186.911 164.19 186.338C165.425 185.762 166.594 185.568 167.697 185.756C168.808 185.94 169.843 186.503 170.802 187.443C171.757 188.377 172.626 189.682 173.408 191.358ZM165.774 194.918C166.245 195.929 166.714 196.739 167.18 197.348C167.645 197.957 168.103 198.363 168.553 198.566C169.007 198.759 169.451 198.754 169.885 198.552C170.333 198.343 170.623 198.009 170.757 197.551C170.896 197.089 170.878 196.491 170.7 195.756C170.526 195.011 170.197 194.119 169.713 193.081C168.979 191.507 168.275 190.422 167.601 189.828C166.931 189.223 166.267 189.074 165.609 189.381C165.174 189.584 164.889 189.928 164.752 190.413C164.618 190.888 164.636 191.503 164.807 192.258C164.974 193.007 165.296 193.893 165.774 194.918ZM176.411 180.924C177.944 180.209 179.286 180.083 180.436 180.547C181.592 181.007 182.523 181.994 183.229 183.507C183.574 184.247 183.8 184.98 183.907 185.706C184.011 186.426 183.978 187.115 183.805 187.773C183.63 188.425 183.302 189.024 182.822 189.57C182.338 190.11 181.686 190.571 180.865 190.954L180.173 191.276L182.475 196.213L178.933 197.865L171.994 182.984L176.411 180.924ZM177.475 184.083L176.936 184.335L178.773 188.274L179.088 188.127C179.414 187.975 179.666 187.771 179.843 187.514C180.018 187.251 180.095 186.93 180.076 186.551C180.06 186.162 179.93 185.706 179.686 185.184C179.414 184.6 179.094 184.216 178.728 184.032C178.361 183.848 177.943 183.865 177.475 184.083ZM204.663 185.866L200.531 187.793L192.339 180.349L192.257 180.387C192.551 180.911 192.817 181.403 193.056 181.861C193.298 182.31 193.511 182.723 193.695 183.1C193.883 183.467 194.043 183.792 194.176 184.077L196.734 189.564L193.447 191.097L186.508 176.216L190.61 174.303L198.663 181.502L198.744 181.464C198.483 180.975 198.241 180.517 198.018 180.093C197.795 179.668 197.592 179.275 197.407 178.915C197.223 178.555 197.061 178.226 196.922 177.927L194.406 172.533L197.724 170.986L204.663 185.866ZM214.548 172.174C215.13 173.422 215.522 174.582 215.724 175.653C215.93 176.713 215.944 177.682 215.766 178.558C215.591 179.424 215.229 180.188 214.678 180.849C214.131 181.501 213.396 182.042 212.473 182.472C211.557 182.899 210.669 183.111 209.808 183.108C208.947 183.104 208.126 182.893 207.343 182.473C206.558 182.046 205.82 181.411 205.129 180.568C204.439 179.725 203.803 178.68 203.221 177.431C202.448 175.776 202.012 174.281 201.911 172.949C201.817 171.613 202.055 170.457 202.624 169.482C203.2 168.502 204.102 167.727 205.33 167.154C206.565 166.578 207.734 166.384 208.838 166.571C209.948 166.756 210.983 167.318 211.942 168.259C212.898 169.193 213.767 170.498 214.548 172.174ZM206.915 175.733C207.386 176.744 207.855 177.554 208.32 178.163C208.786 178.772 209.244 179.178 209.694 179.382C210.147 179.575 210.591 179.57 211.026 179.368C211.473 179.159 211.764 178.825 211.897 178.367C212.037 177.905 212.018 177.306 211.841 176.571C211.667 175.826 211.338 174.935 210.854 173.897C210.119 172.322 209.416 171.238 208.742 170.644C208.072 170.039 207.407 169.89 206.749 170.197C206.315 170.4 206.029 170.744 205.892 171.229C205.759 171.704 205.777 172.319 205.947 173.074C206.114 173.822 206.437 174.709 206.915 175.733ZM228.788 156.5L232.908 172.696L228.847 174.589L225.233 169.496C225.023 169.206 224.813 168.907 224.604 168.6C224.395 168.293 224.187 167.981 223.982 167.663C223.779 167.336 223.577 167.009 223.375 166.682C223.173 166.355 222.978 166.025 222.789 165.692C222.899 165.979 223.016 166.301 223.14 166.656C223.264 167.011 223.388 167.383 223.511 167.771C223.632 168.153 223.747 168.533 223.857 168.911C223.974 169.286 224.073 169.641 224.155 169.974L225.722 176.046L221.702 177.921L211.903 164.374L215.363 162.76L219.445 168.75C219.603 168.982 219.785 169.257 219.99 169.574C220.203 169.888 220.423 170.227 220.651 170.592C220.875 170.95 221.1 171.316 221.324 171.691C221.552 172.055 221.769 172.405 221.974 172.738C221.841 172.346 221.709 171.941 221.58 171.522C221.448 171.096 221.325 170.683 221.212 170.281C221.096 169.872 220.989 169.493 220.891 169.142C220.794 168.791 220.715 168.489 220.655 168.236L218.926 161.099L221.786 159.766L226.009 165.739C226.196 165.982 226.398 166.264 226.614 166.585C226.833 166.896 227.058 167.228 227.29 167.583C227.528 167.935 227.759 168.289 227.984 168.647C228.206 168.998 228.411 169.332 228.6 169.649C228.45 169.256 228.291 168.81 228.124 168.309C227.964 167.806 227.802 167.282 227.639 166.738C227.477 166.195 227.327 165.67 227.19 165.164L225.246 158.152L228.788 156.5Z" fill="white"/>
</g>
<defs>
<clipPath id="clip0_102_12">
<rect width="288.647" height="288.647" fill="white" transform="translate(99.0308 0.307495) rotate(20)"/>
</clipPath>
</defs>
</svg>
