<svg width="256" height="256" viewBox="0 0 256 256" fill="none" xmlns="http://www.w3.org/2000/svg">
<path d="M92 140C92 141.582 91.5308 143.129 90.6517 144.445C89.7727 145.76 88.5233 146.786 87.0614 147.391C85.5996 147.997 83.9911 148.155 82.4393 147.846C80.8874 147.538 79.4619 146.776 78.3431 145.657C77.2243 144.538 76.4624 143.113 76.1537 141.561C75.845 140.009 76.0034 138.4 76.6089 136.939C77.2144 135.477 78.2398 134.227 79.5554 133.348C80.871 132.469 82.4177 132 84 132C86.1217 132 88.1565 132.843 89.6568 134.343C91.1571 135.843 92 137.878 92 140ZM172 132C170.418 132 168.871 132.469 167.555 133.348C166.24 134.227 165.214 135.477 164.609 136.939C164.003 138.4 163.845 140.009 164.154 141.561C164.462 143.113 165.224 144.538 166.343 145.657C167.462 146.776 168.887 147.538 170.439 147.846C171.991 148.155 173.6 147.997 175.061 147.391C176.523 146.786 177.773 145.76 178.652 144.445C179.531 143.129 180 141.582 180 140C180 137.878 179.157 135.843 177.657 134.343C176.157 132.843 174.122 132 172 132ZM228 51.3V136C228 186.7 183.1 228 128 228C72.9 228 28 186.7 28 136V51.3C27.9941 48.9224 28.6947 46.5965 30.0129 44.6177C31.3311 42.6389 33.2074 41.0963 35.4038 40.1856C37.6001 39.2749 40.0175 39.0372 42.3492 39.5027C44.6808 39.9682 46.8216 41.1158 48.5 42.8L68 62.4C76.0841 56.8656 84.9029 52.4898 94.2 49.4C94.5524 49.2538 94.9221 49.153 95.3 49.1C116.57 42.3012 139.43 42.3012 160.7 49.1C161.078 49.153 161.448 49.2538 161.8 49.4C171.097 52.4898 179.916 56.8656 188 62.4L207.5 42.8C209.178 41.1158 211.319 39.9682 213.651 39.5027C215.982 39.0372 218.4 39.2749 220.596 40.1856C222.793 41.0963 224.669 42.6389 225.987 44.6177C227.305 46.5965 228.006 48.9224 228 51.3ZM220 51.3C219.998 50.5046 219.76 49.7277 219.314 49.0687C218.869 48.4096 218.237 47.8983 217.5 47.6C216.776 47.3007 215.978 47.2264 215.211 47.387C214.444 47.5475 213.743 47.9354 213.2 48.5L191.2 70.4C190.524 71.0776 189.628 71.4906 188.674 71.564C187.72 71.6374 186.771 71.3663 186 70.8C179.24 65.8021 171.841 61.7325 164 58.7V88C164 89.0609 163.579 90.0783 162.828 90.8284C162.078 91.5786 161.061 92 160 92C158.939 92 157.922 91.5786 157.172 90.8284C156.421 90.0783 156 89.0609 156 88V56C148.186 53.7392 140.128 52.4298 132 52.1V88C132 89.0609 131.579 90.0783 130.828 90.8284C130.078 91.5786 129.061 92 128 92C126.939 92 125.922 91.5786 125.172 90.8284C124.421 90.0783 124 89.0609 124 88V52.1C115.872 52.4298 107.814 53.7392 100 56V88C100 89.0609 99.5786 90.0783 98.8284 90.8284C98.0783 91.5786 97.0608 92 96 92C94.9391 92 93.9217 91.5786 93.1715 90.8284C92.4214 90.0783 92 89.0609 92 88V58.7C84.1591 61.7325 76.7599 65.8021 70 70.8C69.2287 71.3663 68.2799 71.6374 67.3258 71.564C66.3717 71.4906 65.4756 71.0776 64.8 70.4L42.8 48.5C42.4529 48.1298 42.0351 47.8329 41.5714 47.6268C41.1077 47.4207 40.6073 47.3096 40.1 47.3C39.5663 47.2867 39.0354 47.3803 38.5385 47.5753C38.0416 47.7703 37.5888 48.0629 37.2067 48.4356C36.8246 48.8084 36.521 49.2539 36.3137 49.7458C36.1065 50.2378 35.9998 50.7662 36 51.3V136C36 181.1 75.1 218 124 219.9V193.7L109.2 178.8C108.622 178.03 108.342 177.077 108.41 176.116C108.478 175.156 108.891 174.252 109.572 173.572C110.252 172.891 111.156 172.478 112.116 172.41C113.077 172.342 114.03 172.622 114.8 173.2L128 186.3L141.2 173.2C141.97 172.622 142.923 172.342 143.884 172.41C144.844 172.478 145.748 172.891 146.428 173.572C147.109 174.252 147.522 175.156 147.59 176.116C147.658 177.077 147.378 178.03 146.8 178.8L132 193.7V219.9C180.9 218 220 181.1 220 136V51.3Z" fill="black"/>
</svg>
