<svg width="256" height="256" viewBox="0 0 256 256" fill="none" xmlns="http://www.w3.org/2000/svg">
<path d="M100 140C100 141.582 99.5308 143.129 98.6518 144.445C97.7727 145.76 96.5233 146.786 95.0615 147.391C93.5997 147.997 91.9911 148.155 90.4393 147.846C88.8875 147.538 87.462 146.776 86.3432 145.657C85.2244 144.538 84.4624 143.113 84.1537 141.561C83.8451 140.009 84.0035 138.4 84.609 136.939C85.2145 135.477 86.2399 134.227 87.5555 133.348C88.8711 132.469 90.4178 132 92 132C94.1218 132 96.1566 132.843 97.6569 134.343C99.1572 135.843 100 137.878 100 140ZM164 148C165.582 148 167.129 147.531 168.445 146.652C169.76 145.773 170.786 144.523 171.391 143.061C171.997 141.6 172.155 139.991 171.846 138.439C171.538 136.887 170.776 135.462 169.657 134.343C168.538 133.224 167.113 132.462 165.561 132.154C164.009 131.845 162.4 132.003 160.939 132.609C159.477 133.214 158.227 134.24 157.348 135.555C156.469 136.871 156 138.418 156 140C156 142.122 156.843 144.157 158.343 145.657C159.843 147.157 161.878 148 164 148ZM231.1 140.3C228.658 141.431 225.904 141.701 223.289 141.065C220.673 140.429 218.351 138.926 216.7 136.8L212 130.8V184C212 193.548 208.207 202.705 201.456 209.456C194.705 216.207 185.548 220 176 220H80C70.4522 220 61.2955 216.207 54.5442 209.456C47.7929 202.705 44 193.548 44 184V130.8L39.3 136.8C37.6493 138.926 35.3267 140.429 32.7113 141.065C30.096 141.701 27.3423 141.431 24.9 140.3C22.4342 139.23 20.4121 137.343 19.1737 134.958C17.9353 132.572 17.5562 129.832 18.1 127.2L34.5 39.6C34.7916 37.9883 35.4127 36.4541 36.3245 35.0935C37.2363 33.7328 38.4192 32.5751 39.7991 31.6927C41.179 30.8104 42.7262 30.2223 44.3438 29.9655C45.9614 29.7086 47.6147 29.7885 49.2 30.2L104.5 44H151.5L206.8 30.2C208.385 29.7885 210.039 29.7086 211.656 29.9655C213.274 30.2223 214.821 30.8104 216.201 31.6927C217.581 32.5751 218.764 33.7328 219.676 35.0935C220.587 36.4541 221.208 37.9883 221.5 39.6L237.9 127.2C238.444 129.832 238.065 132.572 236.826 134.958C235.588 137.343 233.566 139.23 231.1 140.3ZM97 50.4L47.3 37.9H46.3C45.5097 37.8855 44.7366 38.1315 44.1 38.6C43.6537 38.8938 43.2724 39.2762 42.98 39.7234C42.6875 40.1707 42.4901 40.6733 42.4 41.2L25.9 128.6C25.6923 129.494 25.7986 130.433 26.2011 131.258C26.6035 132.084 27.2777 132.745 28.1104 133.132C28.943 133.519 29.8835 133.608 30.7738 133.384C31.6642 133.159 32.4502 132.635 33 131.9L97 50.4ZM204 120.7L150.1 52H105.9L52 120.7V184C52.0264 191.418 54.9848 198.525 60.2301 203.77C65.4755 209.015 72.5821 211.974 80 212H124V193.7L109.2 178.8C108.622 178.03 108.342 177.077 108.41 176.116C108.478 175.156 108.891 174.252 109.572 173.572C110.252 172.891 111.156 172.478 112.116 172.41C113.077 172.342 114.03 172.622 114.8 173.2L128 186.3L141.2 173.2C141.97 172.622 142.923 172.342 143.884 172.41C144.844 172.478 145.748 172.891 146.428 173.572C147.109 174.252 147.522 175.156 147.59 176.116C147.658 177.077 147.378 178.03 146.8 178.8L132 193.7V212H176C183.418 211.974 190.525 209.015 195.77 203.77C201.015 198.525 203.974 191.418 204 184V120.7ZM230.1 128.6L213.6 41.1C213.51 40.5733 213.313 40.0707 213.02 39.6234C212.728 39.1762 212.346 38.7938 211.9 38.5C210.946 37.9076 209.804 37.6936 208.7 37.9L159 50.4L223 131.9C223.55 132.635 224.336 133.159 225.226 133.384C226.117 133.608 227.057 133.519 227.89 133.132C228.722 132.745 229.396 132.084 229.799 131.258C230.201 130.433 230.308 129.494 230.1 128.6Z" fill="black"/>
</svg>
