<svg width="256" height="256" viewBox="0 0 256 256" fill="none" xmlns="http://www.w3.org/2000/svg">
<path d="M164 76C164 77.5822 163.531 79.1289 162.652 80.4445C161.773 81.7601 160.523 82.7855 159.061 83.391C157.6 83.9965 155.991 84.1549 154.439 83.8463C152.887 83.5376 151.462 82.7756 150.343 81.6568C149.224 80.538 148.462 79.1125 148.154 77.5607C147.845 76.0088 148.003 74.4003 148.609 72.9385C149.214 71.4767 150.24 70.2273 151.555 69.3482C152.871 68.4692 154.418 68 156 68C158.122 68 160.157 68.8428 161.657 70.3431C163.157 71.8434 164 73.8782 164 76ZM195.3 165.1C169 191.5 126.4 201.9 68.5 196.5C70.2 209.9 72.6 224.1 75.9 239.1C76.0185 239.612 76.0349 240.143 75.9483 240.661C75.8616 241.18 75.6736 241.676 75.395 242.122C75.1164 242.568 74.7526 242.954 74.3245 243.259C73.8964 243.564 73.4123 243.782 72.9 243.9H72C71.0997 243.883 70.23 243.571 69.5252 243.01C68.8203 242.45 68.3195 241.673 68.1 240.8C64.7594 225.842 62.1894 210.722 60.4 195.5C46.2 193.8 31.1 191.3 15.1 187.8C14.0657 187.561 13.1685 186.921 12.6059 186.021C12.0433 185.121 11.8613 184.034 12.1 183C12.3387 181.966 12.9785 181.068 13.8787 180.506C14.7789 179.943 15.8657 179.761 16.9 180C31.9 183.2 46.1 185.7 59.5 187.4C54.1 129.6 64.5 87 90.8 60.7C94.1882 57.3237 97.8324 54.2144 101.7 51.4H101.8C141.2 22.8 195.1 31.4 211.9 35C214.156 35.4865 216.223 36.6132 217.855 38.2449C219.487 39.8766 220.613 41.9442 221.1 44.2C225.1 62.5 235 125.6 195.3 165.1ZM189.7 159.5L193.2 155.8C169.06 154.233 146.329 143.881 129.3 126.7C112.119 109.671 101.767 86.9399 100.2 62.8L96.5 66.3C71.7 91.2 62 132.1 67.6 188.4C123.9 194 164.8 184.3 189.7 159.5ZM213.3 45.8C213.099 45.0574 212.708 44.3803 212.164 43.8364C211.62 43.2925 210.943 42.9006 210.2 42.7C194.5 39.3 144.6 31.3 108 56.7C108.131 80.8737 117.793 104.02 134.886 121.114C151.98 138.207 175.126 147.869 199.3 148C224.7 111.4 216.7 61.5 213.3 45.8Z" fill="black"/>
</svg>
