<svg width="256" height="256" viewBox="0 0 256 256" fill="none" xmlns="http://www.w3.org/2000/svg">
<path d="M199.2 57.8C189.925 48.3273 178.846 40.8096 166.617 35.6912C154.388 30.5729 141.257 27.9576 128 28H120C118.939 28 117.922 28.4214 117.172 29.1716C116.421 29.9217 116 30.9392 116 32V61.8L13.9 124.6C13.439 124.888 13.0416 125.268 12.7321 125.715C12.4227 126.162 12.2076 126.667 12.1 127.2C11.986 127.737 11.9895 128.292 12.1104 128.827C12.2312 129.362 12.4665 129.864 12.8 130.3L26.5 149.5C29.5727 153.757 33.7805 157.065 38.6431 159.046C43.5057 161.026 48.8271 161.599 54 160.7C69 158.1 97.1 156.1 122.2 169.3L91.4 212.4C82.3749 208.488 74.0357 203.153 66.7 196.6C66.315 196.232 65.8604 195.945 65.3629 195.755C64.8653 195.565 64.3348 195.476 63.8026 195.494C63.2703 195.512 62.7469 195.635 62.2632 195.858C61.7794 196.081 61.345 196.398 60.9854 196.791C60.6258 197.184 60.3483 197.645 60.1692 198.146C59.9901 198.648 59.9129 199.18 59.9422 199.712C59.9715 200.243 60.1067 200.764 60.3398 201.243C60.573 201.722 60.8994 202.149 61.3 202.5C79.6123 218.96 103.377 228.046 128 228H130C155.893 227.36 180.539 216.748 198.798 198.378C217.057 180.007 227.518 155.297 228 129.4C228.221 116.147 225.787 102.985 220.84 90.6877C215.894 78.3907 208.536 67.2084 199.2 57.8ZM220 129.3C219.618 153.133 210.022 175.892 193.223 192.802C176.425 209.713 153.73 219.46 129.9 220C119.448 220.199 109.037 218.644 99.1 215.4L130.1 171.9C143.507 171.358 156.185 165.655 165.485 155.983C174.784 146.31 179.985 133.418 180 120C180 118.939 179.579 117.922 178.828 117.172C178.078 116.421 177.061 116 176 116C174.939 116 173.922 116.421 173.172 117.172C172.421 117.922 172 118.939 172 120C171.978 131.491 167.471 142.519 159.44 150.737C151.409 158.955 140.487 163.713 129 164C101.1 147.7 69.3 150 52.6 152.8C48.9112 153.446 45.1151 153.038 41.6479 151.623C38.1808 150.207 35.1833 147.843 33 144.8L21.8 129.2L122.1 67.4C122.687 67.0495 123.171 66.5509 123.505 65.9542C123.838 65.3574 124.009 64.6835 124 64V36H128C140.192 35.9988 152.262 38.4208 163.51 43.1254C174.757 47.8299 184.958 54.723 193.518 63.4042C202.078 72.0853 208.827 82.3813 213.374 93.6938C217.92 105.006 220.172 117.109 220 129.3ZM132 100C132 101.582 131.531 103.129 130.652 104.445C129.773 105.76 128.523 106.786 127.061 107.391C125.6 107.997 123.991 108.155 122.439 107.846C120.887 107.538 119.462 106.776 118.343 105.657C117.224 104.538 116.462 103.113 116.154 101.561C115.845 100.009 116.003 98.4004 116.609 96.9386C117.214 95.4767 118.24 94.2273 119.555 93.3483C120.871 92.4692 122.418 92 124 92C126.122 92 128.157 92.8429 129.657 94.3432C131.157 95.8435 132 97.8783 132 100Z" fill="black"/>
</svg>
